<svg xmlns="http://www.w3.org/2000/svg" viewBox="0 0 152 34" fill-rule="evenodd" stroke-linejoin="round" stroke-miterlimit="2"><path d="M0 27.472c0 4.409 6.18 5.552 13.5 5.552 7.281 0 13.5-1.103 13.5-5.513s-6.179-5.552-13.5-5.552c-7.281 0-13.5 1.103-13.5 5.513z" fill="#435ebe" fill-rule="nonzero"/><circle cx="13.5" cy="8.8" r="8.8" fill="#41bbdd"/><path d="M57.468 22.339 Q55.866 22.429 54.809 22.654 Q53.751 22.880 53.123 23.241 Q52.500 23.601 52.238 24.064 Q51.977 24.520 51.977 25.061 Q51.977 26.144 52.505 26.595 Q53.039 27.046 53.988 27.046 Q55.076 27.046 55.876 26.606 Q56.677 26.161 57.468 25.225 L57.468 22.339 Z M48.576 14.091 Q50.014 12.614 51.754 11.887 Q53.494 11.154 55.520 11.154 Q56.973 11.154 58.120 11.695 Q59.267 12.237 60.068 13.201 Q60.868 14.165 61.293 15.501 Q61.718 16.837 61.718 18.421 L61.718 30.112 L59.727 30.112 Q59.109 30.112 58.782 29.915 Q58.461 29.718 58.259 29.087 L57.908 27.891 Q57.290 28.506 56.712 28.979 Q56.138 29.447 55.520 29.763 Q54.903 30.079 54.196 30.237 Q53.494 30.400 52.624 30.400 Q51.551 30.400 50.662 30.079 Q49.777 29.752 49.135 29.115 Q48.497 28.472 48.146 27.519 Q47.800 26.561 47.800 25.315 Q47.800 24.284 48.260 23.258 Q48.719 22.232 49.831 21.392 Q50.948 20.552 52.807 20.005 Q54.665 19.452 57.468 19.379 L57.468 18.421 Q57.468 16.673 56.815 15.856 Q56.168 15.033 54.952 15.033 Q54.047 15.033 53.444 15.275 Q52.846 15.518 52.397 15.799 Q51.947 16.076 51.551 16.324 Q51.156 16.566 50.632 16.566 Q50.172 16.566 49.866 16.307 Q49.560 16.042 49.352 15.681 L48.576 14.091 Z M69.235 14.582 Q70.006 12.992 71.019 12.073 Q72.033 11.154 73.392 11.154 Q74.499 11.154 75.196 11.746 L74.909 15.427 Q74.830 15.788 74.662 15.923 Q74.499 16.059 74.217 16.059 Q73.960 16.059 73.486 15.980 Q73.011 15.895 72.601 15.895 Q72.003 15.895 71.533 16.098 Q71.069 16.295 70.703 16.656 Q70.342 17.017 70.046 17.541 Q69.754 18.060 69.502 18.731 L69.502 30.112 L65.138 30.112 L65.138 11.515 L67.713 11.515 Q68.380 11.515 68.632 11.786 Q68.884 12.056 68.998 12.721 L69.235 14.582 Z M81.428 25.208 Q82.045 26.020 82.762 26.347 Q83.484 26.668 84.260 26.668 Q85.065 26.668 85.723 26.336 Q86.380 25.997 86.855 25.270 Q87.329 24.537 87.581 23.365 Q87.833 22.192 87.833 20.535 Q87.833 19.052 87.626 18.015 Q87.423 16.978 87.018 16.312 Q86.617 15.647 86.029 15.343 Q85.446 15.033 84.670 15.033 Q83.642 15.033 82.891 15.546 Q82.139 16.059 81.428 17.051 L81.428 25.208 Z M81.428 13.663 Q82.391 12.558 83.563 11.893 Q84.734 11.228 86.187 11.228 Q87.596 11.228 88.728 11.870 Q89.860 12.507 90.655 13.697 Q91.456 14.886 91.891 16.577 Q92.326 18.263 92.326 20.354 Q92.326 22.609 91.827 24.458 Q91.328 26.307 90.408 27.626 Q89.494 28.940 88.219 29.662 Q86.948 30.383 85.382 30.383 Q84.620 30.383 84.017 30.208 Q83.419 30.039 82.910 29.735 Q82.406 29.425 81.981 29.002 Q81.556 28.579 81.175 28.055 L81.002 29.177 Q80.889 29.695 80.637 29.904 Q80.385 30.112 79.955 30.112 L77.063 30.112 L77.063 3.217 L81.428 3.217 L81.428 13.663 Z M99.618 11.515 L99.618 30.112 L95.249 30.112 L95.249 11.515 L99.618 11.515 Z M100.137 6.227 Q100.137 6.859 99.915 7.400 Q99.697 7.941 99.322 8.358 Q98.951 8.770 98.452 9.006 Q97.958 9.243 97.384 9.243 Q96.850 9.243 96.366 9.006 Q95.882 8.770 95.516 8.358 Q95.155 7.941 94.943 7.400 Q94.730 6.859 94.730 6.227 Q94.730 5.596 94.943 5.049 Q95.155 4.497 95.516 4.085 Q95.882 3.668 96.366 3.437 Q96.850 3.200 97.384 3.200 Q97.958 3.200 98.452 3.437 Q98.951 3.668 99.322 4.085 Q99.697 4.497 99.915 5.049 Q100.137 5.596 100.137 6.227 Z M115.178 15.664 Q114.990 15.952 114.797 16.104 Q114.609 16.256 114.263 16.256 Q113.947 16.256 113.650 16.053 Q113.359 15.844 112.978 15.602 Q112.603 15.354 112.079 15.151 Q111.560 14.943 110.784 14.943 Q109.800 14.943 109.078 15.348 Q108.362 15.754 107.887 16.515 Q107.413 17.271 107.180 18.353 Q106.953 19.435 106.953 20.788 Q106.953 23.635 107.956 25.152 Q108.965 26.668 110.705 26.668 Q111.303 26.668 111.738 26.550 Q112.173 26.431 112.499 26.251 Q112.825 26.071 113.062 25.856 Q113.299 25.636 113.512 25.456 Q113.724 25.276 113.937 25.163 Q114.150 25.045 114.421 25.045 Q114.926 25.045 115.212 25.479 L116.463 27.283 Q115.766 28.201 114.975 28.805 Q114.184 29.408 113.334 29.763 Q112.489 30.112 111.619 30.248 Q110.749 30.383 109.899 30.383 Q108.396 30.383 107.052 29.746 Q105.708 29.103 104.694 27.880 Q103.681 26.651 103.088 24.864 Q102.495 23.077 102.495 20.788 Q102.495 18.748 103.014 17.000 Q103.538 15.247 104.551 13.967 Q105.564 12.688 107.057 11.960 Q108.555 11.228 110.512 11.228 Q112.380 11.228 113.789 11.915 Q115.197 12.597 116.319 13.894 L115.178 15.664 Z M126.015 11.228 Q127.848 11.228 129.351 11.893 Q130.854 12.558 131.926 13.798 Q133.004 15.033 133.587 16.803 Q134.175 18.567 134.175 20.788 Q134.175 23.004 133.587 24.785 Q133.004 26.561 131.926 27.807 Q130.854 29.047 129.351 29.718 Q127.848 30.383 126.015 30.383 Q124.161 30.383 122.649 29.718 Q121.141 29.047 120.064 27.807 Q118.991 26.561 118.398 24.785 Q117.805 23.004 117.805 20.788 Q117.805 18.567 118.398 16.803 Q118.991 15.033 120.064 13.798 Q121.141 12.558 122.649 11.893 Q124.161 11.228 126.015 11.228 Z M126.015 26.651 Q127.878 26.651 128.778 25.180 Q129.682 23.709 129.682 20.805 Q129.682 17.919 128.778 16.448 Q127.878 14.976 126.015 14.976 Q124.102 14.976 123.197 16.448 Q122.298 17.919 122.298 20.805 Q122.298 23.709 123.197 25.180 Q124.102 26.651 126.015 26.651 Z M140.976 13.680 Q141.465 13.139 141.994 12.688 Q142.528 12.237 143.121 11.915 Q143.714 11.588 144.401 11.408 Q145.088 11.228 145.894 11.228 Q147.223 11.228 148.252 11.752 Q149.280 12.270 149.981 13.212 Q150.688 14.148 151.044 15.450 Q151.400 16.746 151.400 18.297 L151.400 30.112 L147.051 30.112 L147.051 18.297 Q147.051 16.746 146.418 15.890 Q145.785 15.033 144.550 15.033 Q143.635 15.033 142.825 15.484 Q142.019 15.935 141.292 16.746 L141.292 30.112 L136.928 30.112 L136.928 11.515 L139.617 11.515 Q140.437 11.515 140.709 12.378 L140.976 13.680 Z" fill="#435ebe" fill-rule="nonzero"/></svg>